<?xml version="1.0" encoding="UTF-8" standalone="no"?>
<svg width="144px" height="156px" viewBox="0 0 144 156" version="1.1" xmlns="http://www.w3.org/2000/svg" xmlns:xlink="http://www.w3.org/1999/xlink" xmlns:sketch="http://www.bohemiancoding.com/sketch/ns">
    <!-- Generator: Sketch 3.4 (15588) - http://www.bohemiancoding.com/sketch -->
    <title>char_c</title>
    <desc>Created with Sketch.</desc>
    <defs></defs>
    <g id="Page-1" stroke="none" stroke-width="1" fill="none" fill-rule="evenodd" sketch:type="MSPage">
        <g id="text" sketch:type="MSLayerGroup" transform="translate(0.000000, -244.000000)" fill="#FFFFFF">
            <path d="M81.532,244 C35.098,244 0,277.136 0,321.172 C0,365.862 34.226,399.652 80.224,399.652 C102.678,399.652 126.876,388.534 143.226,371.748 L120.554,347.768 C109.872,358.668 95.048,365.644 82.186,365.644 C57.988,365.644 39.676,346.242 39.676,320.736 C39.676,295.666 57.988,276.482 82.186,276.482 C95.702,276.482 110.526,284.112 120.554,296.32 L143.008,269.724 C127.748,254.028 104.204,244 81.532,244 L81.532,244 Z" id="char_c" sketch:type="MSShapeGroup"></path>
        </g>
    </g>
</svg>