<?xml version="1.0" encoding="UTF-8" standalone="no"?>
<svg width="48px" height="48px" viewBox="0 0 48 48" version="1.1" xmlns="http://www.w3.org/2000/svg" xmlns:xlink="http://www.w3.org/1999/xlink" xmlns:sketch="http://www.bohemiancoding.com/sketch/ns">
    <!-- Generator: Sketch 3.4 (15588) - http://www.bohemiancoding.com/sketch -->
    <title>dribbble</title>
    <desc>Created with Sketch.</desc>
    <defs></defs>
    <g id="Page-1" stroke="none" stroke-width="1" fill="none" fill-rule="evenodd" sketch:type="MSPage">
        <path d="M23.934,2 C36.028,2 45.868,11.834 45.868,23.922 C45.868,36.01 36.028,45.844 23.934,45.844 C11.84,45.844 2,36.01 2,23.922 C2,11.834 11.84,2 23.934,2 L23.934,2 Z M23.934,0 C10.716,0 0,10.709 0,23.922 C0,37.133 10.716,47.844 23.934,47.844 C37.152,47.844 47.868,37.133 47.868,23.922 C47.868,10.709 37.152,0 23.934,0 Z M36.798,18.489 C36.448,17.662 36.015,16.865 35.51,16.12 C35.012,15.381 34.438,14.686 33.808,14.056 C33.176,13.424 32.481,12.851 31.743,12.352 C30.997,11.847 30.198,11.416 29.371,11.066 C28.527,10.71 27.644,10.436 26.747,10.252 C25.828,10.065 24.883,9.969 23.937,9.969 C22.992,9.969 22.045,10.065 21.125,10.252 C20.228,10.436 19.345,10.71 18.503,11.066 C17.675,11.417 16.877,11.847 16.131,12.352 C15.391,12.852 14.697,13.424 14.065,14.056 C13.435,14.686 12.862,15.381 12.362,16.12 C11.858,16.865 11.424,17.663 11.076,18.489 C10.719,19.332 10.444,20.215 10.26,21.113 C10.073,22.031 9.977,22.975 9.977,23.92 C9.977,24.867 10.072,25.813 10.26,26.733 C10.445,27.629 10.719,28.512 11.076,29.353 C11.424,30.182 11.858,30.979 12.362,31.726 C12.862,32.464 13.435,33.158 14.065,33.79 C14.697,34.421 15.391,34.993 16.131,35.493 C16.877,35.996 17.675,36.429 18.503,36.779 C19.346,37.135 20.228,37.408 21.125,37.593 C22.045,37.782 22.992,37.876 23.937,37.876 C24.883,37.876 25.829,37.782 26.747,37.593 C27.644,37.408 28.528,37.135 29.371,36.779 C30.198,36.428 30.997,35.996 31.743,35.493 C32.481,34.993 33.176,34.421 33.808,33.79 C34.439,33.158 35.012,32.464 35.51,31.726 C36.014,30.979 36.448,30.182 36.798,29.353 C37.155,28.512 37.429,27.629 37.612,26.733 C37.8,25.814 37.896,24.867 37.896,23.92 C37.896,22.975 37.801,22.03 37.612,21.113 C37.428,20.215 37.155,19.332 36.798,18.489 Z M23.935,12.004 C26.954,12.004 29.709,13.129 31.81,14.978 C31.78,15.023 30.082,17.607 25.581,19.293 C23.543,15.55 21.304,12.576 21.124,12.339 C22.026,12.122 22.966,12.004 23.935,12.004 L23.935,12.004 Z M21.08,12.351 L21.077,12.353 C21.077,12.353 21.063,12.357 21.041,12.36 C21.054,12.357 21.067,12.355 21.08,12.351 L21.08,12.351 Z M18.848,13.144 C19.006,13.357 21.212,16.344 23.275,20.01 C17.55,21.531 12.582,21.471 12.267,21.465 C13.042,17.773 15.522,14.713 18.848,13.144 L18.848,13.144 Z M15.067,31.886 C13.168,29.775 12.012,26.982 12.012,23.92 C12.012,23.795 12.017,23.669 12.022,23.544 C12.232,23.549 18.123,23.682 24.262,21.847 C24.604,22.516 24.931,23.193 25.229,23.871 C25.072,23.916 24.915,23.964 24.759,24.015 C18.325,26.094 15.062,31.879 15.062,31.879 C15.062,31.879 15.066,31.884 15.067,31.886 L15.067,31.886 Z M24.107,35.84 C21.343,35.84 18.948,34.891 16.953,33.313 L16.953,33.317 C16.953,33.317 16.669,33.235 16.512,33.11 C16.599,33.181 16.606,33.245 16.695,33.314 C16.717,33.269 18.969,28.325 26.007,25.873 C26.033,25.864 26.038,25.855 26.065,25.848 C27.743,30.205 28.511,33.855 28.687,34.897 C27.257,35.502 25.758,35.84 24.107,35.84 L24.107,35.84 Z M30.598,33.806 C30.476,33.085 29.841,29.589 28.277,25.293 C32.126,24.677 35.462,25.733 35.708,25.813 C35.176,29.135 33.274,31.998 30.598,33.806 L30.598,33.806 Z M27.55,23.413 C27.465,23.208 27.381,23.004 27.293,22.797 C27.045,22.214 26.778,21.636 26.5,21.069 C31.208,19.148 33.12,16.385 33.144,16.352 C34.815,18.382 35.826,20.974 35.854,23.802 C35.681,23.766 31.647,22.897 27.55,23.413 L27.55,23.413 Z" id="dribbble" fill="#4A4A4A" sketch:type="MSShapeGroup"></path>
    </g>
</svg>