<?xml version="1.0" encoding="UTF-8" standalone="no"?>
<svg width="43px" height="62px" viewBox="0 0 43 62" version="1.1" xmlns="http://www.w3.org/2000/svg" xmlns:xlink="http://www.w3.org/1999/xlink" xmlns:sketch="http://www.bohemiancoding.com/sketch/ns">
    <!-- Generator: Sketch 3.4 (15588) - http://www.bohemiancoding.com/sketch -->
    <title>mouse</title>
    <desc>Created with Sketch.</desc>
    <defs></defs>
    <g id="Page-1" stroke="none" stroke-width="1" fill="none" fill-rule="evenodd" sketch:type="MSPage">
        <path d="M1.671,28.203 L40.347,28.203 L40.347,41.195 C40.347,51.617 31.738,59.977 21.011,59.977 C10.285,59.977 1.671,51.621 1.671,41.195 L1.671,28.203 L1.671,28.203 Z M20.918,7.563 C20.5,7.621 20.171,8.004 20.171,8.418 L20.171,19.844 C20.171,20.285 20.589,20.699 21.035,20.699 C21.453,20.699 21.871,20.285 21.871,19.844 L21.871,8.418 C21.871,7.945 21.394,7.5 20.918,7.563 L20.918,7.563 Z M21.039,1.715 C23.035,1.715 24.972,1.98 26.82,2.543 C27.089,2.633 27.386,2.719 27.683,2.84 L27.711,2.84 C27.98,2.957 28.246,3.047 28.546,3.164 C28.546,3.164 28.546,3.195 28.578,3.195 C28.843,3.313 29.144,3.402 29.414,3.52 C29.414,3.551 29.414,3.551 29.441,3.551 C29.711,3.699 29.976,3.816 30.246,3.934 C30.246,3.965 30.273,3.965 30.273,3.965 C30.543,4.113 30.781,4.23 31.046,4.379 L31.046,4.41 C31.316,4.559 31.582,4.734 31.82,4.883 L31.851,4.914 C32.089,5.09 32.355,5.238 32.593,5.414 L32.593,5.445 C32.832,5.621 33.101,5.77 33.308,5.945 L33.339,5.977 C33.578,6.184 33.816,6.359 34.023,6.566 C34.023,6.566 34.054,6.566 34.054,6.598 C34.261,6.773 34.472,6.98 34.679,7.187 C34.679,7.187 34.711,7.187 34.711,7.219 C34.918,7.426 35.128,7.633 35.304,7.84 C35.332,7.84 35.332,7.84 35.332,7.871 C35.543,8.078 35.75,8.285 35.925,8.52 C35.957,8.52 35.957,8.52 35.957,8.551 C36.164,8.758 36.316,8.992 36.492,9.23 C36.492,9.23 36.519,9.23 36.519,9.262 C36.699,9.469 36.878,9.734 37.054,9.973 L37.054,10.004 C37.234,10.242 37.382,10.477 37.531,10.742 C37.562,10.742 37.562,10.742 37.562,10.773 C37.711,11.008 37.859,11.273 38.007,11.512 C38.007,11.543 38.039,11.543 38.039,11.543 C38.187,11.809 38.304,12.074 38.425,12.34 L38.457,12.34 C38.574,12.605 38.695,12.902 38.816,13.168 C38.816,13.168 38.816,13.168 38.816,13.199 C38.933,13.465 39.054,13.73 39.175,14.027 C39.918,16.035 40.335,18.219 40.335,20.523 L40.335,26.578 L1.699,26.578 L1.699,20.492 C1.699,10.102 10.281,1.715 21.039,1.715 L21.039,1.715 Z M20.171,0.035 C8.941,0.445 0,9.422 0,20.492 L0,41.191 C0,52.5 9.386,61.625 21.007,61.625 C32.628,61.625 42.015,52.5 42.015,41.191 L42.015,27.609 C42.046,27.551 42.046,27.461 42.046,27.371 L42.046,20.492 C42.046,18.367 41.687,16.328 41.062,14.379 C40.972,14.082 40.882,13.758 40.765,13.434 L40.738,13.434 C40.621,13.109 40.527,12.844 40.41,12.547 L40.382,12.516 C40.23,12.219 40.113,11.895 39.964,11.629 L39.964,11.598 C39.812,11.305 39.636,11.008 39.488,10.711 C39.308,10.414 39.16,10.121 38.98,9.855 C38.8,9.59 38.621,9.293 38.445,9.027 C38.445,9.027 38.445,9.027 38.418,8.996 C38.238,8.758 38.058,8.492 37.882,8.227 L37.851,8.195 C37.644,7.957 37.464,7.723 37.257,7.457 L37.23,7.457 C37.019,7.191 36.812,6.957 36.601,6.719 C36.574,6.719 36.574,6.687 36.574,6.687 C36.335,6.449 36.125,6.246 35.918,6.008 C35.886,6.008 35.886,5.977 35.886,5.977 C35.648,5.77 35.41,5.535 35.171,5.328 C35.171,5.328 35.144,5.328 35.144,5.297 C34.906,5.09 34.668,4.883 34.398,4.676 L34.398,4.645 C34.132,4.437 33.894,4.262 33.625,4.082 L33.597,4.051 C33.328,3.875 33.062,3.668 32.793,3.488 L32.765,3.488 C32.496,3.313 32.23,3.133 31.961,2.988 C31.933,2.988 31.933,2.957 31.933,2.957 C31.636,2.781 31.339,2.633 31.07,2.484 C31.043,2.484 31.043,2.453 31.043,2.453 C30.746,2.305 30.476,2.156 30.179,2.012 C30.152,2.012 30.152,1.98 30.152,1.98 C29.855,1.863 29.558,1.742 29.257,1.625 C29.226,1.625 29.226,1.594 29.226,1.594 C28.929,1.477 28.601,1.355 28.273,1.27 C28.273,1.238 28.273,1.238 28.246,1.238 C27.949,1.121 27.617,1.004 27.293,0.914 C25.593,0.383 23.777,0.086 21.898,0 L20.171,0.035 Z" id="mouse" fill="#4A4A4A" sketch:type="MSShapeGroup"></path>
    </g>
</svg>