<?xml version="1.0" encoding="UTF-8" standalone="no"?>
<svg width="48px" height="48px" viewBox="0 0 48 48" version="1.1" xmlns="http://www.w3.org/2000/svg" xmlns:xlink="http://www.w3.org/1999/xlink" xmlns:sketch="http://www.bohemiancoding.com/sketch/ns">
    <!-- Generator: Sketch 3.4 (15588) - http://www.bohemiancoding.com/sketch -->
    <title>behance</title>
    <desc>Created with Sketch.</desc>
    <defs></defs>
    <g id="Page-1" stroke="none" stroke-width="1" fill="none" fill-rule="evenodd" sketch:type="MSPage">
        <path d="M23.935,0 C10.716,0 0,10.709 0,23.922 C0,37.133 10.716,47.844 23.935,47.844 C37.152,47.844 47.868,37.133 47.868,23.922 C47.868,10.709 37.152,0 23.935,0 Z M23.935,2 C36.029,2 45.868,11.834 45.868,23.922 C45.868,36.01 36.029,45.844 23.935,45.844 C11.84,45.844 2,36.01 2,23.922 C2,11.834 11.84,2 23.935,2 Z M13.791,32.892 L18.64,32.892 C18.64,32.892 23.931,33.073 23.931,27.598 C23.931,27.598 24.162,23.142 20.812,23.142 C20.812,23.142 23.353,22.939 23.353,19.73 C23.353,16.519 21.274,14.952 18.641,14.952 L13.792,14.952 L13.649,14.952 L9.973,14.952 L9.973,32.893 L13.648,32.893 L13.791,32.893 L13.791,32.892 Z M13.791,18.141 L18.015,18.141 L18.639,18.141 C18.639,18.141 19.816,18.141 19.816,20.005 C19.816,21.871 19.124,22.143 18.339,22.143 L13.791,22.143 L13.791,18.141 L13.791,18.141 Z M13.791,24.91 L18.64,24.91 C18.64,24.91 20.394,24.884 20.394,27.374 C20.394,29.472 19.084,29.689 18.396,29.706 C18.267,29.708 18.158,29.706 18.085,29.706 L13.792,29.706 L13.792,24.91 L13.791,24.91 Z M31.712,18.938 C24.932,18.938 24.938,25.93 24.938,25.93 C24.938,25.93 24.472,32.888 31.712,32.888 C31.712,32.888 37.746,33.243 37.746,28.047 L34.642,28.047 C34.642,28.047 34.746,30.005 31.816,30.005 C31.816,30.005 28.712,30.219 28.712,26.838 L37.848,26.838 C37.848,26.838 38.847,18.938 31.712,18.938 Z M28.676,24.409 C28.676,24.409 29.055,21.603 31.78,21.603 C34.505,21.603 34.468,24.409 34.468,24.409 L28.676,24.409 Z M28.92,15.948 L34.904,15.948 L34.904,17.941 L28.92,17.941 L28.92,15.948 Z" id="behance" fill="#4A4A4A" sketch:type="MSShapeGroup"></path>
    </g>
</svg>