<?xml version="1.0" encoding="UTF-8" standalone="no"?>
<svg width="148px" height="156px" viewBox="0 0 148 156" version="1.1" xmlns="http://www.w3.org/2000/svg" xmlns:xlink="http://www.w3.org/1999/xlink" xmlns:sketch="http://www.bohemiancoding.com/sketch/ns">
    <!-- Generator: Sketch 3.4 (15588) - http://www.bohemiancoding.com/sketch -->
    <title>char_g</title>
    <desc>Created with Sketch.</desc>
    <defs></defs>
    <g id="Page-1" stroke="none" stroke-width="1" fill="none" fill-rule="evenodd" sketch:type="MSPage">
        <g id="text" sketch:type="MSLayerGroup" transform="translate(-834.000000, -244.000000)" fill="#FFFFFF">
            <path d="M945.998006,320.3 L945.998006,359.758 C936.842006,364.336 926.814006,367.17 918.966006,367.17 C893.678006,367.17 874.276006,347.55 874.276006,321.608 C874.276006,296.102 893.460006,276.482 918.530006,276.482 C932.700006,276.482 948.178006,282.804 959.296006,293.05 L981.096006,266.672 C965.400006,252.72 941.420006,244 918.748006,244 C870.570006,244 834.600006,277.354 834.600006,321.608 C834.600006,366.08 869.698006,399.652 916.132006,399.652 C937.496006,399.652 963.220006,391.368 979.570006,379.814 L979.570006,320.3 L945.998006,320.3 Z" id="char_g" sketch:type="MSShapeGroup"></path>
        </g>
    </g>
</svg>