<?xml version="1.0" encoding="UTF-8" standalone="no"?>
<svg width="151px" height="156px" viewBox="0 0 151 156" version="1.1" xmlns="http://www.w3.org/2000/svg" xmlns:xlink="http://www.w3.org/1999/xlink" xmlns:sketch="http://www.bohemiancoding.com/sketch/ns">
    <!-- Generator: Sketch 3.4 (15588) - http://www.bohemiancoding.com/sketch -->
    <title>char_o2</title>
    <desc>Created with Sketch.</desc>
    <defs></defs>
    <g id="Page-1" stroke="none" stroke-width="1" fill="none" fill-rule="evenodd" sketch:type="MSPage">
        <g id="text" sketch:type="MSLayerGroup" transform="translate(-531.000000, -462.000000)" fill="#FFFFFF">
            <path d="M578.115359,579.5683 C584.31506,583.151865 591.400112,585.17 598.84,585.17 C622.384,585.17 641.132,565.332 641.132,539.608 C641.132,513.884 622.384,494.482 598.84,494.482 C575.934839,494.482 556.743621,512.845383 555.719022,537.528252 C550.786441,528.269333 543.254212,514.130626 531.752224,492.540308 C546.470001,473.686493 570.347363,462 598.404,462 C645.71,462 681.026,495.136 681.026,539.39 C681.026,583.862 645.71,617.652 598.404,617.652 C589.451532,600.84737 582.904002,588.557036 578.115361,579.568303 Z" id="char_o2" sketch:type="MSShapeGroup"></path>
        </g>
    </g>
</svg>