<?xml version="1.0" encoding="UTF-8" standalone="no"?>
<svg width="48px" height="48px" viewBox="0 0 48 48" version="1.1" xmlns="http://www.w3.org/2000/svg" xmlns:xlink="http://www.w3.org/1999/xlink" xmlns:sketch="http://www.bohemiancoding.com/sketch/ns">
    <!-- Generator: Sketch 3.4 (15588) - http://www.bohemiancoding.com/sketch -->
    <title>mail</title>
    <desc>Created with Sketch.</desc>
    <defs></defs>
    <g id="Page-1" stroke="none" stroke-width="1" fill="none" fill-rule="evenodd" sketch:type="MSPage">
        <path d="M23.935,2 C36.029,2 45.868,11.834 45.868,23.922 C45.868,36.01 36.029,45.844 23.935,45.844 C11.84,45.844 2,36.01 2,23.922 C2,11.834 11.84,2 23.935,2 L23.935,2 Z M23.935,0 C10.716,0 0,10.709 0,23.922 C0,37.133 10.716,47.844 23.935,47.844 C37.152,47.844 47.868,37.133 47.868,23.922 C47.868,10.709 37.152,0 23.935,0 Z M33.821,31.702 C31.855,31.702 29.499,31.74 27.482,31.74 C26.699,31.74 25.967,31.734 25.329,31.719 C24.291,31.694 23.078,31.686 21.772,31.686 C19.821,31.686 17.669,31.702 15.621,31.702 C14.177,31.702 12.786,31.694 11.554,31.665 C12.205,30.791 13.211,29.445 14.249,28.083 C14.989,27.112 15.744,26.132 16.394,25.314 C16.718,24.905 17.018,24.537 17.274,24.231 C17.466,24.002 17.636,23.806 17.77,23.659 C20.93,26.666 23.703,29.14 23.707,29.142 C23.93,29.343 24.272,29.332 24.482,29.12 C24.482,29.12 24.532,29.07 24.623,28.979 C25.152,28.448 27.107,26.486 29.345,24.256 C31.385,26.871 33.812,29.171 35.996,31.727 C35.93,31.725 35.864,31.723 35.798,31.723 C35.215,31.708 34.544,31.702 33.821,31.702 Z M11.066,27.899 C11.066,26.403 11.08,24.85 11.132,23.383 C11.157,22.695 11.165,21.944 11.165,21.171 C11.165,19.766 11.136,18.273 11.122,16.92 C12.015,17.928 13.085,19.049 14.224,20.196 C15.113,21.091 16.043,22 16.958,22.881 C16.801,23.051 16.619,23.261 16.413,23.51 C15.948,24.064 15.365,24.798 14.739,25.604 C13.485,27.218 12.052,29.121 11.077,30.426 C11.07,29.621 11.066,28.771 11.066,27.899 L11.066,27.899 Z M20.978,16.127 C21.559,16.152 22.421,16.158 23.417,16.158 C24.302,16.158 25.289,16.154 26.274,16.154 C27.299,16.154 28.318,16.158 29.205,16.178 C29.517,16.184 29.831,16.189 30.143,16.189 C31.749,16.189 33.353,16.114 34.928,16.114 C35.292,16.114 35.656,16.118 36.015,16.129 C35.349,16.753 34.353,17.721 33.206,18.846 C29.912,22.083 25.383,26.622 24.061,27.948 C23.22,27.191 21.147,25.31 18.824,23.107 C17.486,21.84 16.069,20.464 14.758,19.137 C13.688,18.052 12.691,17.002 11.869,16.068 C13.585,16.064 15.127,16.052 16.548,16.052 C18.148,16.05 19.595,16.067 20.978,16.127 L20.978,16.127 Z M36.811,21.218 C36.811,23.272 36.766,25.329 36.757,27.536 C36.753,28.553 36.726,29.704 36.693,30.81 C34.469,28.235 32.086,25.966 30.15,23.456 C30.57,23.039 30.991,22.619 31.415,22.199 C32.916,20.711 34.391,19.256 35.526,18.155 C35.989,17.706 36.394,17.318 36.721,17.01 C36.79,18.444 36.811,19.831 36.811,21.218 L36.811,21.218 Z M37.768,15.577 C37.749,15.294 37.526,15.073 37.243,15.052 C36.472,15 35.699,14.982 34.928,14.982 C33.316,14.982 31.714,15.058 30.143,15.058 C29.837,15.058 29.533,15.056 29.23,15.048 C28.329,15.027 27.304,15.023 26.274,15.023 C25.286,15.023 24.298,15.027 23.417,15.027 C22.425,15.027 21.569,15.023 21.026,14.998 C19.619,14.938 18.155,14.921 16.549,14.921 C14.763,14.921 12.802,14.942 10.547,14.942 C10.235,14.942 9.983,15.194 9.983,15.504 C9.983,17.194 10.036,19.272 10.036,21.171 C10.036,21.938 10.028,22.674 10.003,23.343 C9.949,24.833 9.937,26.398 9.937,27.901 C9.937,29.37 9.949,30.776 9.951,31.989 C9.901,32.152 9.926,32.33 10.021,32.47 C10.114,32.64 10.288,32.757 10.494,32.764 C11.976,32.818 13.757,32.83 15.62,32.83 C17.674,32.83 19.826,32.814 21.771,32.814 C23.071,32.814 24.278,32.822 25.299,32.847 C25.95,32.862 26.69,32.868 27.479,32.868 C29.511,32.868 31.867,32.831 33.818,32.831 C34.535,32.831 35.198,32.835 35.769,32.85 C36.339,32.865 36.815,32.888 37.152,32.92 C37.307,32.934 37.462,32.885 37.578,32.783 C37.694,32.682 37.764,32.533 37.77,32.378 C37.822,30.875 37.877,29.067 37.884,27.542 C37.89,25.349 37.938,23.291 37.938,21.22 C37.94,19.382 37.902,17.537 37.768,15.577 L37.768,15.577 Z" id="mail" fill="#4A4A4A" sketch:type="MSShapeGroup"></path>
    </g>
</svg>