<?xml version="1.0" encoding="UTF-8" standalone="no"?>
<svg width="131px" height="156px" viewBox="0 0 131 156" version="1.1" xmlns="http://www.w3.org/2000/svg" xmlns:xlink="http://www.w3.org/1999/xlink" xmlns:sketch="http://www.bohemiancoding.com/sketch/ns">
    <!-- Generator: Sketch 3.4 (15588) - http://www.bohemiancoding.com/sketch -->
    <title>char_s</title>
    <desc>Created with Sketch.</desc>
    <defs></defs>
    <g id="Page-1" stroke="none" stroke-width="1" fill="none" fill-rule="evenodd" sketch:type="MSPage">
        <g id="text" sketch:type="MSLayerGroup" transform="translate(-77.000000, -462.000000)" fill="#FFFFFF">
            <path d="M147.196,462 C110.572,462 86.374,479.876 86.374,507.998 C86.374,562.062 167.034,545.93 167.034,572.962 C167.034,581.682 159.404,586.26 147.196,586.26 C131.282,586.26 107.738,577.104 92.042,563.37 L77,593.236 C95.094,608.06 121.254,617.652 146.76,617.652 C180.768,617.652 207.8,601.52 207.8,571 C207.8,515.846 127.14,530.888 127.14,504.51 C127.14,497.098 133.898,493.392 143.926,493.392 C156.352,493.392 176.626,499.932 192.758,509.306 L207.364,479.004 C191.668,468.758 169.214,462 147.196,462 L147.196,462 Z" id="char_s" sketch:type="MSShapeGroup"></path>
        </g>
    </g>
</svg>