<?xml version="1.0" encoding="UTF-8"?><!DOCTYPE svg PUBLIC "-//W3C//DTD SVG 1.1//EN" "http://www.w3.org/Graphics/SVG/1.1/DTD/svg11.dtd"><svg xmlns="http://www.w3.org/2000/svg"><symbol id="icon-back_a" viewBox="0 0 533 559">
    <title>
        back_a
    </title>
    <path d="M166.365 512.41H379.32l19.96 46.58h133.09L266.19 0 0 559h133.09l33.275-46.59zm53.237-119.786l53.236-106.472 53.236 106.472H219.602z" fill="#E46363" fill-rule="evenodd"/>
</symbol><symbol id="icon-behance" viewBox="0 0 48 48">
    <title>
        behance
    </title>
    <path d="M23.935 0C10.715 0 0 10.71 0 23.922c0 13.21 10.716 23.922 23.935 23.922 13.217 0 23.933-10.71 23.933-23.922C47.868 10.71 37.152 0 23.935 0zm0 2c12.094 0 21.933 9.834 21.933 21.922 0 12.088-9.84 21.922-21.933 21.922C11.84 45.844 2 36.01 2 23.922 2 11.834 11.84 2 23.935 2zM13.79 32.892h4.85s5.29.18 5.29-5.294c0 0 .232-4.456-3.118-4.456 0 0 2.54-.203 2.54-3.412 0-3.21-2.078-4.778-4.71-4.778H9.97v17.94H13.79zm0-14.75H18.64s1.176 0 1.176 1.863c0 1.866-.692 2.138-1.477 2.138h-4.55V18.14zm0 6.768h4.85s1.754-.026 1.754 2.464c0 2.098-1.31 2.315-1.998 2.332-.13.002-.238 0-.31 0H13.79V24.91zm17.922-5.972c-6.78 0-6.774 6.992-6.774 6.992s-.466 6.958 6.774 6.958c0 0 6.034.355 6.034-4.84h-3.104s.104 1.957-2.826 1.957c0 0-3.104.214-3.104-3.167h9.136s1-7.9-6.136-7.9zm-3.036 5.47s.38-2.805 3.104-2.805c2.725 0 2.688 2.806 2.688 2.806h-5.792zm.244-8.46h5.984v1.993H28.92V15.95z" fill="#4A4A4A" fill-rule="evenodd"/>
</symbol><symbol id="icon-char_c" viewBox="0 0 144 156">
    <title>
        char_c
    </title>
    <path d="M81.532 0C35.098 0 0 33.136 0 77.172c0 44.69 34.226 78.48 80.224 78.48 22.454 0 46.652-11.118 63.002-27.904l-22.672-23.98c-10.682 10.9-25.506 17.876-38.368 17.876-24.198 0-42.51-19.402-42.51-44.908 0-25.07 18.312-44.254 42.51-44.254 13.516 0 28.34 7.63 38.368 19.838l22.454-26.596C127.748 10.028 104.204 0 81.532 0z" fill="#FFF" fill-rule="evenodd"/>
</symbol><symbol id="icon-char_g" viewBox="0 0 148 156">
    <title>
        char_g
    </title>
    <path d="M111.998 76.3v39.458c-9.156 4.578-19.184 7.412-27.032 7.412-25.288 0-44.69-19.62-44.69-45.562 0-25.506 19.184-45.126 44.254-45.126 14.17 0 29.648 6.322 40.766 16.568l21.8-26.378C131.4 8.72 107.42 0 84.748 0 36.57 0 .6 33.354.6 77.608c0 44.472 35.098 78.044 81.532 78.044 21.364 0 47.088-8.284 63.438-19.838V76.3h-33.572z" fill="#FFF" fill-rule="evenodd"/>
</symbol><symbol id="icon-char_i" viewBox="0 0 39 153">
    <title>
        char_i
    </title>
    <path d="M38.804 152.6V0H0v152.6h38.804z" fill="#FFF" fill-rule="evenodd"/>
</symbol><symbol id="icon-char_m" viewBox="0 0 168 153">
    <title>
        char_m
    </title>
    <path d="M167.642 152.818V0H125.35L83.93 90.906 42.51 0H0v152.818h34.662v-99.19l36.624 83.93h25.288l36.624-83.93.218 99.19h34.226z" fill="#FFF" fill-rule="evenodd"/>
</symbol><symbol id="icon-char_m2" viewBox="0 0 84 153">
    <title>
        char_m2
    </title>
    <path d="M83.93 90.906L42.51 0H0v152.818h34.662v-99.19l36.624 83.93L83.93 90.906z" fill="#FFF" fill-rule="evenodd"/>
</symbol><symbol id="icon-char_n" viewBox="0 0 141 153">
    <title>
        char_n
    </title>
    <path d="M140.828 152.6V0H104.64v94.176L34.226 0H0v152.6h36.406V58.642l70.196 93.958h34.226z" fill="#FFF" fill-rule="evenodd"/>
</symbol><symbol id="icon-char_n2" viewBox="0 0 107 153">
    <title>
        char_n2
    </title>
    <path d="M104.64 94.176L34.226 0H0v152.6h36.406V58.642l70.196 93.958-1.962-58.424z" fill="#FFF" fill-rule="evenodd"/>
</symbol><symbol id="icon-char_o" viewBox="0 0 166 156">
    <title>
        char_o
    </title>
    <path d="M82.404 0C35.316 0 0 32.918 0 77.39c0 44.69 35.316 78.262 82.404 78.262 47.306 0 82.622-33.79 82.622-78.262C165.026 33.136 129.71 0 82.404 0zm.436 32.482c23.544 0 42.292 19.402 42.292 45.126 0 25.724-18.748 45.562-42.292 45.562-23.326 0-43.164-19.838-43.164-45.562 0-25.724 19.62-45.126 43.164-45.126z" fill="#FFF" fill-rule="evenodd"/>
</symbol><symbol id="icon-char_o2" viewBox="0 0 151 156">
    <title>
        char_o2
    </title>
    <path d="M47.115 117.568c6.2 3.584 13.285 5.602 20.725 5.602 23.544 0 42.292-19.838 42.292-45.562 0-25.724-18.748-45.126-42.292-45.126-22.905 0-42.096 18.363-43.12 43.046L.75 30.54C15.47 11.686 39.347 0 67.404 0c47.306 0 82.622 33.136 82.622 77.39 0 44.472-35.316 78.262-82.622 78.262-8.952-16.805-15.5-29.095-20.29-38.084z" fill="#FFF" fill-rule="evenodd"/>
</symbol><symbol id="icon-char_s" viewBox="0 0 131 156">
    <title>
        char_s
    </title>
    <path d="M70.196 0C33.572 0 9.374 17.876 9.374 45.998c0 54.064 80.66 37.932 80.66 64.964 0 8.72-7.63 13.298-19.838 13.298-15.914 0-39.458-9.156-55.154-22.89L0 131.236c18.094 14.824 44.254 24.416 69.76 24.416 34.008 0 61.04-16.132 61.04-46.652 0-55.154-80.66-40.112-80.66-66.49 0-7.412 6.758-11.118 16.786-11.118 12.426 0 32.7 6.54 48.832 15.914l14.606-30.302C114.668 6.758 92.214 0 70.196 0z" fill="#FFF" fill-rule="evenodd"/>
</symbol><symbol id="icon-circle" viewBox="0 0 46 46">
    <title>
        circle
    </title>
    <path d="M23 46c12.703 0 23-10.297 23-23S35.703 0 23 0 0 10.297 0 23s10.297 23 23 23zm0-8c-8.284 0-15-6.716-15-15 0-8.284 6.716-15 15-15 8.284 0 15 6.716 15 15 0 8.284-6.716 15-15 15z" fill="#E46363" fill-rule="evenodd"/>
</symbol><symbol id="icon-dribbble" viewBox="0 0 48 48">
    <title>
        dribbble
    </title>
    <path d="M23.934 2c12.094 0 21.934 9.834 21.934 21.922 0 12.088-9.84 21.922-21.934 21.922C11.84 45.844 2 36.01 2 23.922 2 11.834 11.84 2 23.934 2zm0-2C10.716 0 0 10.71 0 23.922c0 13.21 10.716 23.922 23.934 23.922 13.218 0 23.934-10.71 23.934-23.922C47.868 10.71 37.152 0 23.934 0zm12.864 18.49a13.856 13.856 0 0 0-1.288-2.37 13.968 13.968 0 0 0-8.763-5.868 14.12 14.12 0 0 0-5.622 0 13.948 13.948 0 0 0-8.763 5.868 13.9 13.9 0 0 0-2.385 7.8c0 .947.095 1.893.283 2.813a13.934 13.934 0 0 0 2.102 4.993 14.26 14.26 0 0 0 1.703 2.064 14.012 14.012 0 0 0 4.438 2.99c.844.355 1.726.628 2.623.813.92.19 1.867.283 2.812.283a13.966 13.966 0 0 0 5.434-1.097c.828-.352 1.627-.784 2.373-1.287.738-.5 1.433-1.072 2.065-1.703a14.06 14.06 0 0 0 2.99-4.437c.357-.84.63-1.724.814-2.62a14.07 14.07 0 0 0 0-5.62 13.894 13.894 0 0 0-.814-2.624zm-12.863-6.486a11.88 11.88 0 0 1 7.875 2.974c-.03.045-1.728 2.63-6.23 4.315a60.55 60.55 0 0 0-4.456-6.954 11.998 11.998 0 0 1 2.81-.336zm-2.855.347l-.003.003s-.014.004-.036.007c.014-.003.027-.005.04-.01zm-2.232.794a71.68 71.68 0 0 1 4.427 6.866c-5.725 1.52-10.693 1.46-11.008 1.455a11.93 11.93 0 0 1 6.58-8.32zm-3.78 18.742a11.872 11.872 0 0 1-3.056-7.966c0-.125.005-.25.01-.376.21.005 6.1.138 12.24-1.697.342.67.67 1.346.967 2.024a13.36 13.36 0 0 0-.47.145c-6.435 2.08-9.698 7.864-9.698 7.864l.005.006zm9.04 3.954c-2.765 0-5.16-.95-7.155-2.527v.004s-.284-.082-.44-.207c.086.07.093.135.182.204.022-.045 2.274-4.99 9.312-7.44.026-.01.03-.02.058-.026 1.678 4.357 2.446 8.007 2.622 9.05-1.43.604-2.93.942-4.58.942zm6.49-2.034c-.122-.72-.757-4.217-2.32-8.513 3.848-.616 7.184.44 7.43.52a11.933 11.933 0 0 1-5.11 7.993zM27.55 23.413l-.257-.616a35.51 35.51 0 0 0-.793-1.728c4.708-1.922 6.62-4.685 6.644-4.718a11.868 11.868 0 0 1 2.71 7.45c-.173-.036-4.207-.905-8.304-.39z" fill="#4A4A4A" fill-rule="evenodd"/>
</symbol><symbol id="icon-front_a" viewBox="0 0 533 559">
    <title>
        front_a
    </title>
    <path d="M166.365 512.41H379.32l19.96 46.58h133.09L266.19 0 0 559h133.09l33.275-46.59zm53.237-119.786l53.236-106.472 53.236 106.472H219.602z" fill="#E46363" fill-rule="evenodd"/>
</symbol><symbol id="icon-mail" viewBox="0 0 48 48">
    <title>
        mail
    </title>
    <path d="M23.935 2c12.094 0 21.933 9.834 21.933 21.922 0 12.088-9.84 21.922-21.933 21.922C11.84 45.844 2 36.01 2 23.922 2 11.834 11.84 2 23.935 2zm0-2C10.715 0 0 10.71 0 23.922c0 13.21 10.716 23.922 23.935 23.922 13.217 0 23.933-10.71 23.933-23.922C47.868 10.71 37.152 0 23.935 0zm9.886 31.702c-1.965 0-4.32.038-6.338.038a93.91 93.91 0 0 1-2.153-.02c-1.04-.026-2.252-.034-3.558-.034-1.95 0-4.103.016-6.15.016-1.445 0-2.836-.008-4.068-.037.65-.874 1.657-2.22 2.695-3.582.74-.97 1.494-1.95 2.144-2.77.324-.408.624-.776.88-1.082.192-.228.362-.424.496-.57 3.16 3.006 5.933 5.48 5.937 5.482.223.2.565.19.775-.022l.14-.14c.53-.532 2.485-2.494 4.723-4.724 2.04 2.615 4.467 4.915 6.65 7.47-.065 0-.13-.003-.197-.003a78.816 78.816 0 0 0-1.977-.02zM11.067 27.9c0-1.497.014-3.05.066-4.517.025-.688.033-1.44.033-2.212 0-1.404-.03-2.897-.043-4.25a81.54 81.54 0 0 0 3.102 3.276c.89.895 1.82 1.804 2.734 2.685-.157.17-.34.38-.545.63a75.296 75.296 0 0 0-1.674 2.094 345.22 345.22 0 0 0-3.663 4.822c-.007-.805-.01-1.655-.01-2.527zm9.912-11.773c.58.025 1.443.03 2.44.03.884 0 1.87-.003 2.856-.003 1.025 0 2.044.004 2.93.024.313.006.627.01.94.01 1.605 0 3.21-.074 4.784-.074.364 0 .728.004 1.087.015-.666.623-1.662 1.59-2.81 2.716a1475.03 1475.03 0 0 0-9.144 9.102c-.84-.757-2.913-2.638-5.236-4.84a174.212 174.212 0 0 1-4.066-3.97 76.65 76.65 0 0 1-2.89-3.07c1.717-.004 3.26-.016 4.68-.016a99.53 99.53 0 0 1 4.43.075zm15.833 5.09c0 2.055-.044 4.112-.053 6.32-.004 1.016-.03 2.167-.064 3.273-2.224-2.575-4.607-4.844-6.543-7.354.42-.417.84-.837 1.265-1.257 1.5-1.49 2.976-2.944 4.11-4.045.464-.45.87-.837 1.196-1.145.07 1.434.09 2.82.09 4.208zm.958-5.64a.564.564 0 0 0-.525-.525 34.41 34.41 0 0 0-2.315-.07c-1.612 0-3.214.076-4.785.076-.306 0-.61-.002-.913-.01-.9-.02-1.926-.025-2.956-.025-.988 0-1.976.004-2.857.004a61.37 61.37 0 0 1-2.39-.03c-1.408-.06-2.872-.076-4.478-.076-1.787 0-3.748.022-6.003.022a.563.563 0 0 0-.564.562c0 1.69.053 3.768.053 5.667 0 .768-.008 1.504-.033 2.173-.054 1.49-.066 3.055-.066 4.558 0 1.47.012 2.876.014 4.09a.564.564 0 0 0 .07.48.56.56 0 0 0 .474.294c1.482.054 3.263.066 5.126.066 2.054 0 4.206-.016 6.15-.016 1.3 0 2.508.008 3.53.033.65.015 1.39.02 2.18.02 2.03 0 4.387-.036 6.338-.036.717 0 1.38.005 1.95.02.57.015 1.047.038 1.384.07a.568.568 0 0 0 .426-.137.57.57 0 0 0 .192-.405c.052-1.503.107-3.31.114-4.836.006-2.193.054-4.25.054-6.322a80.327 80.327 0 0 0-.17-5.643z" fill="#4A4A4A" fill-rule="evenodd"/>
</symbol><symbol id="icon-mouse" viewBox="0 0 43 62">
    <title>
        mouse
    </title>
    <path d="M1.67 28.203h38.677v12.992c0 10.422-8.61 18.782-19.336 18.782-10.725 0-19.34-8.356-19.34-18.782V28.203zM20.92 7.563a.886.886 0 0 0-.747.855v11.426c0 .44.42.855.865.855.418 0 .836-.415.836-.856V8.418c0-.473-.476-.918-.952-.855zm.12-5.848c1.997 0 3.934.265 5.782.828.27.09.566.176.863.297h.028c.27.117.536.207.836.324 0 0 0 .03.032.03.265.12.566.208.836.326 0 .03 0 .03.027.03.27.15.536.266.806.384 0 .03.027.03.027.03.27.15.508.266.773.415v.03c.27.15.536.324.774.473l.03.03c.24.177.505.325.743.5v.032c.24.176.508.325.715.5l.03.032c.24.207.478.382.685.59 0 0 .03 0 .03.03.208.176.42.383.626.59 0 0 .03 0 .03.032.208.206.418.413.594.62.028 0 .028 0 .028.03.21.208.418.415.593.65.032 0 .032 0 .032.03.207.208.36.442.535.68 0 0 .027 0 .027.032.18.207.358.472.534.71v.032c.18.238.328.473.477.738.032 0 .032 0 .032.03.15.236.297.5.445.74 0 .03.032.03.032.03.147.267.264.532.385.798h.032c.117.265.238.562.36.828v.03c.116.267.237.532.358.83a18.667 18.667 0 0 1 1.16 6.495v6.055H1.7v-6.086c0-10.39 8.58-18.777 19.34-18.777zm-.867-1.68C8.94.445 0 9.422 0 20.492v20.7C0 52.5 9.386 61.624 21.007 61.624c11.62 0 21.008-9.125 21.008-20.434V27.61c.03-.06.03-.15.03-.24v-6.878c0-2.125-.358-4.164-.983-6.113-.09-.298-.18-.622-.297-.946h-.027c-.117-.325-.21-.59-.328-.887l-.028-.03c-.152-.298-.27-.622-.418-.888v-.032c-.152-.293-.328-.59-.476-.887-.18-.296-.328-.59-.508-.855s-.36-.562-.535-.828l-.027-.03c-.18-.24-.36-.505-.536-.77l-.03-.032c-.208-.238-.388-.472-.595-.738h-.027c-.21-.266-.418-.5-.63-.738-.026 0-.026-.033-.026-.033-.24-.238-.45-.44-.656-.68-.032 0-.032-.03-.032-.03-.238-.207-.476-.442-.715-.65 0 0-.026 0-.026-.03-.238-.207-.476-.414-.746-.62v-.032a12.497 12.497 0 0 0-.773-.563l-.028-.03c-.27-.177-.535-.384-.804-.564h-.028c-.27-.175-.535-.355-.804-.5-.027 0-.027-.03-.027-.03-.297-.177-.594-.325-.863-.474-.027 0-.027-.03-.027-.03-.297-.15-.567-.298-.864-.442-.028 0-.028-.032-.028-.032-.297-.117-.594-.238-.895-.355-.03 0-.03-.03-.03-.03a8.39 8.39 0 0 0-.954-.325c0-.032 0-.032-.027-.032a9.864 9.864 0 0 0-.953-.324c-1.7-.53-3.516-.828-5.395-.914L20.17.035z" fill="#4A4A4A" fill-rule="evenodd"/>
</symbol><symbol id="icon-triangle" viewBox="0 0 72 80">
    <title>
        triangle
    </title>
    <path d="M36 0l36 80H0z" fill="#E46363" fill-rule="evenodd"/>
</symbol></svg>