<?xml version="1.0" encoding="UTF-8" standalone="no"?>
<svg width="217px" height="207px" viewBox="0 0 217 207" version="1.1" xmlns="http://www.w3.org/2000/svg" xmlns:xlink="http://www.w3.org/1999/xlink" xmlns:sketch="http://www.bohemiancoding.com/sketch/ns">
    <!-- Generator: Sketch 3.4 (15588) - http://www.bohemiancoding.com/sketch -->
    <title>soon_o</title>
    <desc>Created with Sketch.</desc>
    <defs>
        <filter x="-50%" y="-50%" width="200%" height="200%" filterUnits="objectBoundingBox" id="filter-1">
            <feOffset dx="0" dy="0" in="SourceAlpha" result="shadowOffsetOuter1"></feOffset>
            <feGaussianBlur stdDeviation="15" in="shadowOffsetOuter1" result="shadowBlurOuter1"></feGaussianBlur>
            <feColorMatrix values="0 0 0 0 0.0823529412   0 0 0 0 0.0823529412   0 0 0 0 0.0823529412  0 0 0 0.14 0" in="shadowBlurOuter1" type="matrix" result="shadowMatrixOuter1"></feColorMatrix>
            <feMerge>
                <feMergeNode in="shadowMatrixOuter1"></feMergeNode>
                <feMergeNode in="SourceGraphic"></feMergeNode>
            </feMerge>
        </filter>
    </defs>
    <g id="Page-1" stroke="none" stroke-width="1" fill="none" fill-rule="evenodd" sketch:type="MSPage">
        <g id="text" sketch:type="MSLayerGroup" transform="translate(-237.000000, -436.000000)" filter="url(#filter-1)" fill="#FFFFFF">
            <path d="M345.404,462 C298.316,462 263,494.918 263,539.39 C263,584.08 298.316,617.652 345.404,617.652 C392.71,617.652 428.026,583.862 428.026,539.39 C428.026,495.136 392.71,462 345.404,462 Z M345.84,494.482 C369.384,494.482 388.132,513.884 388.132,539.608 C388.132,565.332 369.384,585.17 345.84,585.17 C322.514,585.17 302.676,565.332 302.676,539.608 C302.676,513.884 322.296,494.482 345.84,494.482 Z" id="soon_o" sketch:type="MSShapeGroup"></path>
        </g>
    </g>
</svg>