<?xml version="1.0" encoding="UTF-8" standalone="no"?>
<svg width="1919px" height="582px" viewBox="0 0 1919 582" version="1.1" xmlns="http://www.w3.org/2000/svg" xmlns:xlink="http://www.w3.org/1999/xlink" xmlns:sketch="http://www.bohemiancoding.com/sketch/ns">
    <!-- Generator: Sketch 3.4 (15588) - http://www.bohemiancoding.com/sketch -->
    <title>rex-pro-bg</title>
    <desc>Created with Sketch.</desc>
    <defs>
        <rect id="path-1" x="0" y="0" width="1920" height="582"></rect>
        <linearGradient x1="50%" y1="0%" x2="50%" y2="100%" id="linearGradient-3">
            <stop stop-color="#C4B198" offset="0%"></stop>
            <stop stop-color="#F7EAC9" offset="100%"></stop>
        </linearGradient>
    </defs>
    <g id="Page-1" stroke="none" stroke-width="1" fill="none" fill-rule="evenodd" sketch:type="MSPage">
        <g id="rex-pro-bg" sketch:type="MSLayerGroup">
            <mask id="mask-2" sketch:name="Mask" fill="white">
                <use xlink:href="#path-1"></use>
            </mask>
            <use id="Mask" sketch:type="MSShapeGroup" xlink:href="#path-1"></use>
            <path d="M0,197 L1919,0 L1919,582 L0.937469468,582 L0,197 Z" id="Shape" fill="url(#linearGradient-3)" sketch:type="MSShapeGroup" mask="url(#mask-2)"></path>
            <path d="M48.344,543 L48.344,520.208 L-7.6,520.208 L-7.6,448.576 L40.648,448.576 L40.648,425.784 L-7.6,425.784 L-7.6,355.04 L48.344,355.04 L48.344,332.248 L-33.056,332.248 L-33.056,543 L48.344,543 Z M178.88,332.248 L151.056,332.248 L120.272,501.856 L89.784,332.248 L61.664,332.248 L107.248,543 L133.296,543 L178.88,332.248 Z M296.984,437.624 C296.984,384.936 296.392,360.96 281.888,344.976 C273.896,336.096 262.352,329.88 245.48,329.88 C228.608,329.88 217.36,336.096 209.368,344.976 C194.864,360.96 193.976,384.936 193.976,437.624 C193.976,490.312 194.864,514.288 209.368,530.272 C217.36,539.152 228.608,545.368 245.48,545.368 C262.352,545.368 273.896,539.152 281.888,530.272 C296.392,514.288 296.984,490.312 296.984,437.624 L296.984,437.624 Z M271.528,437.624 C271.528,487.648 270.048,504.52 262.648,514.584 C259.096,519.32 253.768,522.576 245.48,522.576 C237.192,522.576 231.864,519.32 228.312,514.584 C220.912,504.52 219.432,487.648 219.432,437.624 C219.432,387.6 220.912,370.728 228.312,360.664 C231.864,355.928 237.192,352.672 245.48,352.672 C253.768,352.672 259.096,355.928 262.648,360.664 C270.048,370.728 271.528,387.6 271.528,437.624 L271.528,437.624 Z M411.24,543 L411.24,520.208 L355.296,520.208 L355.296,332.248 L329.84,332.248 L329.84,543 L411.24,543 Z M536.152,332.248 L508.328,332.248 L477.544,501.856 L447.056,332.248 L418.936,332.248 L464.52,543 L490.568,543 L536.152,332.248 Z M637.68,543 L637.68,520.208 L581.736,520.208 L581.736,448.576 L629.984,448.576 L629.984,425.784 L581.736,425.784 L581.736,355.04 L637.68,355.04 L637.68,332.248 L556.28,332.248 L556.28,543 L637.68,543 Z M809.064,332.248 L780.944,332.248 L757.264,422.232 L733.584,332.248 L705.76,332.248 L744.536,457.752 L744.536,543 L769.992,543 L769.992,457.752 L809.064,332.248 Z M926.576,437.624 C926.576,384.936 925.984,360.96 911.48,344.976 C903.488,336.096 891.944,329.88 875.072,329.88 C858.2,329.88 846.952,336.096 838.96,344.976 C824.456,360.96 823.568,384.936 823.568,437.624 C823.568,490.312 824.456,514.288 838.96,530.272 C846.952,539.152 858.2,545.368 875.072,545.368 C891.944,545.368 903.488,539.152 911.48,530.272 C925.984,514.288 926.576,490.312 926.576,437.624 L926.576,437.624 Z M901.12,437.624 C901.12,487.648 899.64,504.52 892.24,514.584 C888.688,519.32 883.36,522.576 875.072,522.576 C866.784,522.576 861.456,519.32 857.904,514.584 C850.504,504.52 849.024,487.648 849.024,437.624 C849.024,387.6 850.504,370.728 857.904,360.664 C861.456,355.928 866.784,352.672 875.072,352.672 C883.36,352.672 888.688,355.928 892.24,360.664 C899.64,370.728 901.12,387.6 901.12,437.624 L901.12,437.624 Z M1055.04,495.048 L1055.04,332.248 L1029.584,332.248 L1029.584,496.528 C1029.584,513.104 1018.928,522.576 1006.2,522.576 C993.472,522.576 983.112,513.104 983.112,496.528 L983.112,332.248 L957.656,332.248 L957.656,495.048 C957.656,510.44 962.688,522.872 971.272,531.456 C980.448,540.632 992.584,545.368 1006.2,545.368 C1019.816,545.368 1032.248,540.632 1041.424,531.456 C1050.008,522.872 1055.04,510.44 1055.04,495.048 L1055.04,495.048 Z M1195.344,543 L1163.08,447.392 C1181.432,438.808 1188.536,421.64 1188.536,392.336 C1188.536,346.16 1170.776,332.248 1138.808,332.248 L1091.152,332.248 L1091.152,543 L1116.608,543 L1116.608,452.424 L1139.696,452.424 L1168.704,543 L1195.344,543 Z M1163.08,392.336 C1163.08,414.832 1158.64,429.928 1139.104,429.928 L1116.608,429.928 L1116.608,355.04 L1139.104,355.04 C1158.64,355.04 1163.08,370.136 1163.08,392.336 L1163.08,392.336 Z M1373.832,486.464 C1373.832,453.312 1368.208,438.512 1344.232,428.744 L1320.552,418.976 C1303.68,411.872 1300.424,405.656 1300.424,384.936 C1300.424,373.984 1302.792,365.4 1307.824,359.776 C1311.376,355.928 1316.704,353.264 1324.104,353.264 C1332.096,353.264 1337.72,355.928 1341.272,360.368 C1346.6,366.88 1347.784,374.576 1347.784,385.824 L1373.24,385.824 C1373.24,366.584 1369.984,352.968 1359.328,342.608 C1351.336,334.912 1339.792,330.472 1324.4,330.472 C1310.488,330.472 1299.24,334.912 1290.952,342.608 C1280.296,352.376 1274.968,367.472 1274.968,385.824 C1274.968,417.792 1282.072,429.632 1303.68,438.512 L1327.656,448.28 C1344.824,455.384 1348.376,462.784 1348.376,487.056 C1348.376,500.968 1347.192,508.96 1341.568,515.176 C1337.72,519.32 1332.096,521.984 1323.512,521.984 C1315.52,521.984 1309.6,519.32 1306.048,515.472 C1300.424,509.552 1298.944,501.856 1298.944,487.944 L1273.488,487.944 C1273.488,510.44 1276.744,522.576 1286.512,532.344 C1294.8,540.632 1307.232,545.072 1323.512,545.072 C1340.384,545.072 1352.816,540.04 1360.808,532.344 C1370.872,522.28 1373.832,508.368 1373.832,486.464 L1373.832,486.464 Z M1503.48,437.624 C1503.48,384.936 1502.888,360.96 1488.384,344.976 C1480.392,336.096 1468.848,329.88 1451.976,329.88 C1435.104,329.88 1423.856,336.096 1415.864,344.976 C1401.36,360.96 1400.472,384.936 1400.472,437.624 C1400.472,490.312 1401.36,514.288 1415.864,530.272 C1423.856,539.152 1435.104,545.368 1451.976,545.368 C1468.848,545.368 1480.392,539.152 1488.384,530.272 C1502.888,514.288 1503.48,490.312 1503.48,437.624 L1503.48,437.624 Z M1478.024,437.624 C1478.024,487.648 1476.544,504.52 1469.144,514.584 C1465.592,519.32 1460.264,522.576 1451.976,522.576 C1443.688,522.576 1438.36,519.32 1434.808,514.584 C1427.408,504.52 1425.928,487.648 1425.928,437.624 C1425.928,387.6 1427.408,370.728 1434.808,360.664 C1438.36,355.928 1443.688,352.672 1451.976,352.672 C1460.264,352.672 1465.592,355.928 1469.144,360.664 C1476.544,370.728 1478.024,387.6 1478.024,437.624 L1478.024,437.624 Z M1631.944,495.048 L1631.944,332.248 L1606.488,332.248 L1606.488,496.528 C1606.488,513.104 1595.832,522.576 1583.104,522.576 C1570.376,522.576 1560.016,513.104 1560.016,496.528 L1560.016,332.248 L1534.56,332.248 L1534.56,495.048 C1534.56,510.44 1539.592,522.872 1548.176,531.456 C1557.352,540.632 1569.488,545.368 1583.104,545.368 C1596.72,545.368 1609.152,540.632 1618.328,531.456 C1626.912,522.872 1631.944,510.44 1631.944,495.048 L1631.944,495.048 Z M1771.064,543 L1771.064,332.248 L1745.608,332.248 L1745.904,476.4 L1691.736,332.248 L1668.056,332.248 L1668.056,543 L1693.512,543 L1693.512,398.848 L1747.976,543 L1771.064,543 Z M1909,437.624 C1909,385.824 1908.704,362.736 1894.2,347.048 C1886.208,338.464 1874.96,332.248 1858.088,332.248 L1809.248,332.248 L1809.248,543 L1858.088,543 C1874.96,543 1886.208,536.784 1894.2,528.2 C1908.704,512.512 1909,489.424 1909,437.624 L1909,437.624 Z M1883.544,437.624 C1883.544,485.872 1882.656,502.152 1874.96,512.216 C1871.408,516.952 1865.488,520.208 1857.2,520.208 L1834.704,520.208 L1834.704,355.04 L1857.2,355.04 C1865.488,355.04 1871.408,358.296 1874.96,363.032 C1882.656,373.096 1883.544,389.376 1883.544,437.624 L1883.544,437.624 Z" id="EVOLVE-YOUR-SOUND" fill-opacity="0.2" fill="#C4B198" sketch:type="MSShapeGroup" mask="url(#mask-2)"></path>
        </g>
    </g>
</svg>