<?xml version="1.0" encoding="UTF-8" standalone="no"?>
<svg width="1943px" height="217px" viewBox="0 0 1943 217" version="1.1" xmlns="http://www.w3.org/2000/svg" xmlns:xlink="http://www.w3.org/1999/xlink" xmlns:sketch="http://www.bohemiancoding.com/sketch/ns">
    <!-- Generator: Sketch 3.4 (15588) - http://www.bohemiancoding.com/sketch -->
    <title>EVOLVE YOUR SOUND</title>
    <desc>Created with Sketch.</desc>
    <defs></defs>
    <g id="Page-1" stroke="none" stroke-width="1" fill="none" fill-rule="evenodd" sketch:type="MSPage">
        <g id="rex-pro-bg" sketch:type="MSLayerGroup" transform="translate(0.000000, -329.000000)" fill-opacity="0.2" fill="#C4B198">
            <path d="M82.344,543 L82.344,520.208 L26.4,520.208 L26.4,448.576 L74.648,448.576 L74.648,425.784 L26.4,425.784 L26.4,355.04 L82.344,355.04 L82.344,332.248 L0.944,332.248 L0.944,543 L82.344,543 Z M212.88,332.248 L185.056,332.248 L154.272,501.856 L123.784,332.248 L95.664,332.248 L141.248,543 L167.296,543 L212.88,332.248 Z M330.984,437.624 C330.984,384.936 330.392,360.96 315.888,344.976 C307.896,336.096 296.352,329.88 279.48,329.88 C262.608,329.88 251.36,336.096 243.368,344.976 C228.864,360.96 227.976,384.936 227.976,437.624 C227.976,490.312 228.864,514.288 243.368,530.272 C251.36,539.152 262.608,545.368 279.48,545.368 C296.352,545.368 307.896,539.152 315.888,530.272 C330.392,514.288 330.984,490.312 330.984,437.624 L330.984,437.624 Z M305.528,437.624 C305.528,487.648 304.048,504.52 296.648,514.584 C293.096,519.32 287.768,522.576 279.48,522.576 C271.192,522.576 265.864,519.32 262.312,514.584 C254.912,504.52 253.432,487.648 253.432,437.624 C253.432,387.6 254.912,370.728 262.312,360.664 C265.864,355.928 271.192,352.672 279.48,352.672 C287.768,352.672 293.096,355.928 296.648,360.664 C304.048,370.728 305.528,387.6 305.528,437.624 L305.528,437.624 Z M445.24,543 L445.24,520.208 L389.296,520.208 L389.296,332.248 L363.84,332.248 L363.84,543 L445.24,543 Z M570.152,332.248 L542.328,332.248 L511.544,501.856 L481.056,332.248 L452.936,332.248 L498.52,543 L524.568,543 L570.152,332.248 Z M671.68,543 L671.68,520.208 L615.736,520.208 L615.736,448.576 L663.984,448.576 L663.984,425.784 L615.736,425.784 L615.736,355.04 L671.68,355.04 L671.68,332.248 L590.28,332.248 L590.28,543 L671.68,543 Z M843.064,332.248 L814.944,332.248 L791.264,422.232 L767.584,332.248 L739.76,332.248 L778.536,457.752 L778.536,543 L803.992,543 L803.992,457.752 L843.064,332.248 Z M960.576,437.624 C960.576,384.936 959.984,360.96 945.48,344.976 C937.488,336.096 925.944,329.88 909.072,329.88 C892.2,329.88 880.952,336.096 872.96,344.976 C858.456,360.96 857.568,384.936 857.568,437.624 C857.568,490.312 858.456,514.288 872.96,530.272 C880.952,539.152 892.2,545.368 909.072,545.368 C925.944,545.368 937.488,539.152 945.48,530.272 C959.984,514.288 960.576,490.312 960.576,437.624 L960.576,437.624 Z M935.12,437.624 C935.12,487.648 933.64,504.52 926.24,514.584 C922.688,519.32 917.36,522.576 909.072,522.576 C900.784,522.576 895.456,519.32 891.904,514.584 C884.504,504.52 883.024,487.648 883.024,437.624 C883.024,387.6 884.504,370.728 891.904,360.664 C895.456,355.928 900.784,352.672 909.072,352.672 C917.36,352.672 922.688,355.928 926.24,360.664 C933.64,370.728 935.12,387.6 935.12,437.624 L935.12,437.624 Z M1089.04,495.048 L1089.04,332.248 L1063.584,332.248 L1063.584,496.528 C1063.584,513.104 1052.928,522.576 1040.2,522.576 C1027.472,522.576 1017.112,513.104 1017.112,496.528 L1017.112,332.248 L991.656,332.248 L991.656,495.048 C991.656,510.44 996.688,522.872 1005.272,531.456 C1014.448,540.632 1026.584,545.368 1040.2,545.368 C1053.816,545.368 1066.248,540.632 1075.424,531.456 C1084.008,522.872 1089.04,510.44 1089.04,495.048 L1089.04,495.048 Z M1229.344,543 L1197.08,447.392 C1215.432,438.808 1222.536,421.64 1222.536,392.336 C1222.536,346.16 1204.776,332.248 1172.808,332.248 L1125.152,332.248 L1125.152,543 L1150.608,543 L1150.608,452.424 L1173.696,452.424 L1202.704,543 L1229.344,543 Z M1197.08,392.336 C1197.08,414.832 1192.64,429.928 1173.104,429.928 L1150.608,429.928 L1150.608,355.04 L1173.104,355.04 C1192.64,355.04 1197.08,370.136 1197.08,392.336 L1197.08,392.336 Z M1407.832,486.464 C1407.832,453.312 1402.208,438.512 1378.232,428.744 L1354.552,418.976 C1337.68,411.872 1334.424,405.656 1334.424,384.936 C1334.424,373.984 1336.792,365.4 1341.824,359.776 C1345.376,355.928 1350.704,353.264 1358.104,353.264 C1366.096,353.264 1371.72,355.928 1375.272,360.368 C1380.6,366.88 1381.784,374.576 1381.784,385.824 L1407.24,385.824 C1407.24,366.584 1403.984,352.968 1393.328,342.608 C1385.336,334.912 1373.792,330.472 1358.4,330.472 C1344.488,330.472 1333.24,334.912 1324.952,342.608 C1314.296,352.376 1308.968,367.472 1308.968,385.824 C1308.968,417.792 1316.072,429.632 1337.68,438.512 L1361.656,448.28 C1378.824,455.384 1382.376,462.784 1382.376,487.056 C1382.376,500.968 1381.192,508.96 1375.568,515.176 C1371.72,519.32 1366.096,521.984 1357.512,521.984 C1349.52,521.984 1343.6,519.32 1340.048,515.472 C1334.424,509.552 1332.944,501.856 1332.944,487.944 L1307.488,487.944 C1307.488,510.44 1310.744,522.576 1320.512,532.344 C1328.8,540.632 1341.232,545.072 1357.512,545.072 C1374.384,545.072 1386.816,540.04 1394.808,532.344 C1404.872,522.28 1407.832,508.368 1407.832,486.464 L1407.832,486.464 Z M1537.48,437.624 C1537.48,384.936 1536.888,360.96 1522.384,344.976 C1514.392,336.096 1502.848,329.88 1485.976,329.88 C1469.104,329.88 1457.856,336.096 1449.864,344.976 C1435.36,360.96 1434.472,384.936 1434.472,437.624 C1434.472,490.312 1435.36,514.288 1449.864,530.272 C1457.856,539.152 1469.104,545.368 1485.976,545.368 C1502.848,545.368 1514.392,539.152 1522.384,530.272 C1536.888,514.288 1537.48,490.312 1537.48,437.624 L1537.48,437.624 Z M1512.024,437.624 C1512.024,487.648 1510.544,504.52 1503.144,514.584 C1499.592,519.32 1494.264,522.576 1485.976,522.576 C1477.688,522.576 1472.36,519.32 1468.808,514.584 C1461.408,504.52 1459.928,487.648 1459.928,437.624 C1459.928,387.6 1461.408,370.728 1468.808,360.664 C1472.36,355.928 1477.688,352.672 1485.976,352.672 C1494.264,352.672 1499.592,355.928 1503.144,360.664 C1510.544,370.728 1512.024,387.6 1512.024,437.624 L1512.024,437.624 Z M1665.944,495.048 L1665.944,332.248 L1640.488,332.248 L1640.488,496.528 C1640.488,513.104 1629.832,522.576 1617.104,522.576 C1604.376,522.576 1594.016,513.104 1594.016,496.528 L1594.016,332.248 L1568.56,332.248 L1568.56,495.048 C1568.56,510.44 1573.592,522.872 1582.176,531.456 C1591.352,540.632 1603.488,545.368 1617.104,545.368 C1630.72,545.368 1643.152,540.632 1652.328,531.456 C1660.912,522.872 1665.944,510.44 1665.944,495.048 L1665.944,495.048 Z M1805.064,543 L1805.064,332.248 L1779.608,332.248 L1779.904,476.4 L1725.736,332.248 L1702.056,332.248 L1702.056,543 L1727.512,543 L1727.512,398.848 L1781.976,543 L1805.064,543 Z M1943,437.624 C1943,385.824 1942.704,362.736 1928.2,347.048 C1920.208,338.464 1908.96,332.248 1892.088,332.248 L1843.248,332.248 L1843.248,543 L1892.088,543 C1908.96,543 1920.208,536.784 1928.2,528.2 C1942.704,512.512 1943,489.424 1943,437.624 L1943,437.624 Z M1917.544,437.624 C1917.544,485.872 1916.656,502.152 1908.96,512.216 C1905.408,516.952 1899.488,520.208 1891.2,520.208 L1868.704,520.208 L1868.704,355.04 L1891.2,355.04 C1899.488,355.04 1905.408,358.296 1908.96,363.032 C1916.656,373.096 1917.544,389.376 1917.544,437.624 L1917.544,437.624 Z" id="EVOLVE-YOUR-SOUND" sketch:type="MSShapeGroup"></path>
        </g>
    </g>
</svg>